Coordinates
version=1
nRows=41
nColumns=38
inDegrees=no

Units are S.I. units (second, meters, Newtons, ...)
If the header above contains a line with 'inDegrees', this indicates whether rotational values are in degrees (yes) or radians (no).

endheader
time	pelvis_tilt	pelvis_list	pelvis_rotation	pelvis_tx	pelvis_ty	pelvis_tz	hip_flexion_r	hip_adduction_r	hip_rotation_r	knee_angle_r	ankle_angle_r	subtalar_angle_r	mtp_angle_r	hip_flexion_l	hip_adduction_l	hip_rotation_l	knee_angle_l	ankle_angle_l	subtalar_angle_l	mtp_angle_l	lumbar_extension	lumbar_bending	lumbar_rotation	arm_flex_r	arm_add_r	arm_rot_r	elbow_flex_r	pro_sup_r	wrist_flex_r	wrist_dev_r	arm_flex_l	arm_add_l	arm_rot_l	elbow_flex_l	pro_sup_l	wrist_flex_l	wrist_dev_l
0.81	3.10179	1.34864	-1.41766	0.580044	-0.0826239	0.960694	0.0445998	-0.122413	-0.127842	1.28891	-0.395118	0	0	-0.181191	-0.0294297	-0.197224	0.318277	-0.258206	0	0	-0.314382	0.0432691	-0.228597	0.192999	-0.323539	0.761488	0.753289	1.30265	0	0	-0.172663	-0.349177	0.239521	0.87262	1.5708	0	0
0.82	3.08115	1.34752	-1.39365	0.578839	-0.0744383	0.961389	0.067554	-0.119564	-0.130873	1.28637	-0.376482	0	0	-0.194088	-0.034812	-0.193248	0.311746	-0.256217	0	0	-0.314704	0.0507041	-0.232446	0.188403	-0.327522	0.74901	0.757944	1.29086	0	0	-0.160449	-0.352801	0.245132	0.874993	1.5708	0	0
0.83	3.06176	1.34684	-1.37134	0.577749	-0.0664153	0.961919	0.0907667	-0.117452	-0.134983	1.28077	-0.358027	0	0	-0.20638	-0.0397525	-0.189723	0.305564	-0.253684	0	0	-0.31513	0.0576415	-0.235532	0.184039	-0.331265	0.735443	0.762346	1.27911	0	0	-0.147893	-0.356043	0.249338	0.878002	1.5708	0	0
0.84	3.04363	1.34692	-1.35119	0.576778	-0.0583578	0.962278	0.114302	-0.115819	-0.138741	1.27232	-0.339626	0	0	-0.218122	-0.0440906	-0.187957	0.299368	-0.251137	0	0	-0.314902	0.0637625	-0.237513	0.179338	-0.334582	0.720457	0.76616	1.26717	0	0	-0.135353	-0.358703	0.252403	0.88093	1.5708	0	0
0.85	3.02791	1.34705	-1.33342	0.575831	-0.0503196	0.962521	0.136639	-0.114955	-0.143201	1.25975	-0.322623	0	0	-0.229896	-0.0477919	-0.18665	0.293161	-0.248577	0	0	-0.314873	0.0691304	-0.238994	0.174526	-0.337796	0.705602	0.769456	1.25654	0	0	-0.122733	-0.361263	0.254947	0.884257	1.5708	0	0
0.86	3.01427	1.34752	-1.31751	0.574913	-0.0423173	0.962628	0.157973	-0.114822	-0.148334	1.2433	-0.307332	0	0	-0.241198	-0.0510413	-0.18587	0.287107	-0.246118	0	0	-0.314677	0.0741105	-0.240445	0.169947	-0.340987	0.691584	0.772198	1.2479	0	0	-0.109971	-0.363056	0.256415	0.88796	1.5708	0	0
0.87	3.00361	1.34823	-1.30435	0.574035	-0.0343447	0.962588	0.17817	-0.115675	-0.153885	1.22361	-0.29452	0	0	-0.25198	-0.0538422	-0.185696	0.281666	-0.243605	0	0	-0.3146	0.0784336	-0.242144	0.165685	-0.343928	0.678156	0.774491	1.24114	0	0	-0.0973095	-0.364457	0.25661	0.892316	1.5708	0	0
0.88	2.99541	1.3484	-1.29367	0.573276	-0.0263631	0.962453	0.195888	-0.116762	-0.159857	1.20051	-0.282937	0	0	-0.263795	-0.0562339	-0.184139	0.275154	-0.241217	0	0	-0.315383	0.0821626	-0.244051	0.161947	-0.346349	0.665359	0.776229	1.23605	0	0	-0.0853796	-0.366022	0.255684	0.897985	1.5708	0	0
0.89	2.99065	1.34861	-1.2866	0.572642	-0.0183375	0.962194	0.211588	-0.118373	-0.165612	1.17427	-0.273587	0	0	-0.276073	-0.0579395	-0.182245	0.267893	-0.239187	0	0	-0.316439	0.0848624	-0.24615	0.158711	-0.348133	0.653337	0.777122	1.23251	0	0	-0.0740952	-0.367696	0.254112	0.904382	1.5708	0	0
0.9	2.98829	1.34934	-1.28245	0.572137	-0.0102537	0.961798	0.226133	-0.120298	-0.170483	1.1456	-0.265547	0	0	-0.287952	-0.0590974	-0.181231	0.261045	-0.237241	0	0	-0.317203	0.0865482	-0.247997	0.156031	-0.349365	0.642477	0.776848	1.23084	0	0	-0.0633441	-0.369427	0.252159	0.911285	1.5708	0	0
0.91	2.98811	1.35034	-1.28068	0.571673	-0.00219914	0.961298	0.239326	-0.122284	-0.174466	1.11436	-0.257785	0	0	-0.299486	-0.0596873	-0.180272	0.254815	-0.235152	0	0	-0.318038	0.0876513	-0.249826	0.153968	-0.35046	0.633182	0.775806	1.23137	0	0	-0.0528398	-0.370844	0.249687	0.918639	1.5708	0	0
0.92	2.99115	1.35095	-1.28182	0.571116	0.00579038	0.960694	0.250325	-0.125076	-0.178903	1.08105	-0.249926	0	0	-0.31144	-0.0595982	-0.178706	0.248875	-0.232857	0	0	-0.319626	0.0883847	-0.252238	0.152896	-0.351861	0.62593	0.774609	1.23252	0	0	-0.04256	-0.372368	0.247462	0.926282	1.5708	0	0
0.93	2.99738	1.35175	-1.28636	0.570637	0.0137718	0.959923	0.259848	-0.128361	-0.183516	1.04587	-0.240893	0	0	-0.323479	-0.0587109	-0.17647	0.242798	-0.230227	0	0	-0.32139	0.0882819	-0.254484	0.152008	-0.352945	0.618883	0.773319	1.23408	0	0	-0.0325273	-0.373788	0.24525	0.934213	1.5708	0	0
0.94	3.00502	1.35392	-1.29203	0.570221	0.0218847	0.958885	0.269011	-0.132413	-0.189814	1.00885	-0.230427	0	0	-0.334058	-0.0573659	-0.172854	0.23719	-0.227246	0	0	-0.321684	0.0874331	-0.256916	0.150391	-0.353543	0.611392	0.771848	1.23736	0	0	-0.0229014	-0.374976	0.243493	0.94211	1.5708	0	0
0.95	3.01445	1.35769	-1.30025	0.569917	0.030018	0.957561	0.278888	-0.136978	-0.195787	0.9703	-0.220279	0	0	-0.342646	-0.0550992	-0.169471	0.232731	-0.223556	0	0	-0.320478	0.0855056	-0.258599	0.148709	-0.354116	0.604909	0.770231	1.24141	0	0	-0.0134012	-0.376111	0.242608	0.949813	1.5708	0	0
0.96	3.02433	1.36125	-1.30874	0.569604	0.0381398	0.956222	0.286689	-0.141351	-0.202788	0.92827	-0.210911	0	0	-0.350942	-0.0529244	-0.165659	0.229187	-0.21943	0	0	-0.319608	0.0837823	-0.26008	0.147113	-0.354526	0.598425	0.768335	1.24524	0	0	-0.00343214	-0.376908	0.242544	0.956773	1.5708	0	0
0.97	3.0355	1.36602	-1.31927	0.569439	0.046445	0.95467	0.294482	-0.145657	-0.209282	0.884452	-0.200817	0	0	-0.357959	-0.0503105	-0.162613	0.226369	-0.21484	0	0	-0.317292	0.0812655	-0.260684	0.144823	-0.354855	0.592175	0.766492	1.24897	0	0	0.00622981	-0.377453	0.243454	0.963092	1.5708	0	0
0.98	3.04863	1.37162	-1.33185	0.569396	0.0548267	0.952975	0.301938	-0.149667	-0.215379	0.839154	-0.189408	0	0	-0.363708	-0.0475121	-0.159472	0.224764	-0.210123	0	0	-0.314061	0.0780588	-0.260821	0.142134	-0.354741	0.585791	0.764332	1.25232	0	0	0.0160853	-0.377994	0.245701	0.968476	1.5708	0	0
0.99	3.06135	1.37809	-1.34486	0.569481	0.0633504	0.951171	0.3089	-0.152301	-0.220107	0.791504	-0.176537	0	0	-0.368559	-0.0445285	-0.156601	0.223668	-0.205055	0	0	-0.309707	0.0745567	-0.259458	0.138512	-0.354225	0.577927	0.761871	1.25636	0	0	0.026315	-0.378129	0.249264	0.972417	1.5708	0	0
1	3.07401	1.38382	-1.35761	0.569626	0.0719725	0.949431	0.31238	-0.153862	-0.224738	0.740274	-0.163886	0	0	-0.374213	-0.0420107	-0.153697	0.222615	-0.200333	0	0	-0.30585	0.0714381	-0.257524	0.134618	-0.35399	0.571213	0.759304	1.26122	0	0	0.0369348	-0.377801	0.254486	0.975097	1.5708	0	0
1.01	3.08626	1.38969	-1.37033	0.569848	0.0806892	0.947657	0.314242	-0.154522	-0.227607	0.686671	-0.152666	0	0	-0.379643	-0.039636	-0.151317	0.22189	-0.195826	0	0	-0.301659	0.0684782	-0.254709	0.130475	-0.353876	0.564746	0.756783	1.26631	0	0	0.0476446	-0.376832	0.260839	0.976561	1.5708	0	0
1.02	3.09497	1.39454	-1.37918	0.570128	0.0894645	0.945983	0.312711	-0.153103	-0.229689	0.629525	-0.143635	0	0	-0.385715	-0.038526	-0.148952	0.221538	-0.19146	0	0	-0.298275	0.0666356	-0.251446	0.126234	-0.353669	0.558005	0.754172	1.27131	0	0	0.0588547	-0.375173	0.268188	0.976464	1.5708	0	0
1.03	3.10043	1.39905	-1.38502	0.570491	0.0982909	0.944351	0.308478	-0.149474	-0.228061	0.568099	-0.137164	0	0	-0.391449	-0.0382196	-0.147356	0.222252	-0.186987	0	0	-0.295248	0.0654458	-0.246786	0.121291	-0.353198	0.549535	0.751492	1.27723	0	0	0.0708403	-0.372939	0.276908	0.974849	1.5708	0	0
1.04	3.10146	1.40322	-1.38614	0.570891	0.107285	0.942764	0.301562	-0.144071	-0.223607	0.504905	-0.132374	0	0	-0.396594	-0.0392079	-0.146744	0.224617	-0.182799	0	0	-0.292421	0.065232	-0.24209	0.116315	-0.352562	0.541412	0.748516	1.28341	0	0	0.0820084	-0.369965	0.28484	0.972647	1.5708	0	0
1.05	3.09773	1.40634	-1.38207	0.57137	0.116445	0.941247	0.290748	-0.136896	-0.215154	0.439728	-0.132857	0	0	-0.401861	-0.0418079	-0.147168	0.22871	-0.178485	0	0	-0.290242	0.0661097	-0.237094	0.110759	-0.351797	0.532886	0.745602	1.29181	0	0	0.0928519	-0.366414	0.293311	0.969525	1.5708	0	0
1.06	3.09369	1.40789	-1.37685	0.571867	0.125817	0.939791	0.277192	-0.129952	-0.206382	0.379779	-0.136742	0	0	-0.40809	-0.0454166	-0.14831	0.234368	-0.174286	0	0	-0.289362	0.0675158	-0.233187	0.105391	-0.351289	0.526236	0.743227	1.3013	0	0	0.101894	-0.362429	0.300097	0.966964	1.5708	0	0
1.07	3.09344	1.40648	-1.37405	0.572266	0.135427	0.938519	0.26198	-0.12501	-0.202784	0.3343	-0.142127	0	0	-0.417172	-0.0497298	-0.150088	0.240872	-0.170987	0	0	-0.29125	0.0692357	-0.231425	0.100542	-0.351187	0.521355	0.741888	1.30885	0	0	0.108514	-0.358433	0.304573	0.965926	1.5708	0	0
1.08	3.09639	1.40348	-1.37406	0.572639	0.145183	0.937363	0.248719	-0.121846	-0.202621	0.308148	-0.148723	0	0	-0.427489	-0.0542058	-0.152502	0.24855	-0.168419	0	0	-0.294651	0.070846	-0.230799	0.0962619	-0.351431	0.517997	0.741234	1.31474	0	0	0.113173	-0.354567	0.307592	0.965701	1.5708	0	0
1.09	3.1002	1.40058	-1.37511	0.573008	0.155067	0.936257	0.240392	-0.120013	-0.203688	0.303405	-0.154281	0	0	-0.437311	-0.0584783	-0.154672	0.256992	-0.166978	0	0	-0.297742	0.0722937	-0.230699	0.0929446	-0.351973	0.517319	0.740191	1.3194	0	0	0.115923	-0.350201	0.308973	0.96553	1.5708	0	0
1.1	3.10018	1.39517	-1.37191	0.573315	0.165114	0.935489	0.232486	-0.117627	-0.207159	0.314478	-0.159856	0	0	-0.449239	-0.0641988	-0.157592	0.266226	-0.16635	0	0	-0.302979	0.0751455	-0.231043	0.090022	-0.353019	0.517842	0.739455	1.3251	0	0	0.117463	-0.345208	0.308883	0.965193	1.5708	0	0
1.11	3.10046	1.39	-1.3698	0.573758	0.175306	0.934769	0.230832	-0.116275	-0.214147	0.346699	-0.160232	0	0	-0.460466	-0.0696609	-0.161175	0.276644	-0.166608	0	0	-0.308111	0.0778456	-0.23171	0.0871315	-0.354141	0.518595	0.7398	1.33301	0	0	0.116181	-0.339865	0.305579	0.965979	1.5708	0	0
1.12	3.09727	1.38794	-1.3651	0.574501	0.185829	0.933968	0.235091	-0.114464	-0.219662	0.388014	-0.156176	0	0	-0.467965	-0.0751679	-0.164562	0.288306	-0.167691	0	0	-0.309136	0.0799975	-0.23279	0.0845192	-0.353883	0.519923	0.737939	1.34045	0	0	0.111803	-0.33446	0.300614	0.966225	1.5708	0	0
1.13	3.08749	1.38696	-1.35403	0.575514	0.196699	0.933279	0.239298	-0.11021	-0.223538	0.425869	-0.151881	0	0	-0.473672	-0.0821814	-0.168516	0.301405	-0.169752	0	0	-0.307927	0.082707	-0.234564	0.0824916	-0.352479	0.522403	0.734025	1.34862	0	0	0.104857	-0.329351	0.294714	0.966112	1.5708	0	0
1.14	3.06927	1.38456	-1.33406	0.576674	0.207855	0.932981	0.237981	-0.102355	-0.226522	0.449864	-0.152369	0	0	-0.48005	-0.0917452	-0.173117	0.315394	-0.173414	0	0	-0.307377	0.0871347	-0.236905	0.0809393	-0.350312	0.525365	0.728886	1.35627	0	0	0.096362	-0.324747	0.288573	0.965763	1.5708	0	0
1.15	3.04874	1.38252	-1.31204	0.577983	0.21921	0.932819	0.235969	-0.0942281	-0.230713	0.46609	-0.15905	0	0	-0.484733	-0.102042	-0.178756	0.331764	-0.178613	0	0	-0.306101	0.0917873	-0.239987	0.0797607	-0.347573	0.528711	0.723469	1.36465	0	0	0.0854154	-0.320192	0.28056	0.965922	1.5708	0	0
1.16	3.03012	1.38208	-1.29279	0.579456	0.230767	0.932657	0.234969	-0.0872399	-0.234241	0.476852	-0.173388	0	0	-0.486255	-0.111623	-0.185175	0.351276	-0.185195	0	0	-0.303137	0.0953075	-0.243456	0.0784842	-0.344167	0.531445	0.718156	1.37284	0	0	0.071735	-0.315952	0.270385	0.967087	1.5708	0	0
1.17	3.01384	1.38319	-1.27634	0.581083	0.242602	0.932481	0.234853	-0.081421	-0.238653	0.48605	-0.193953	0	0	-0.484572	-0.120787	-0.192415	0.374241	-0.193987	0	0	-0.298356	0.097605	-0.248593	0.0774769	-0.339669	0.533836	0.71256	1.38213	0	0	0.0540709	-0.311749	0.256059	0.970161	1.5708	0	0
1.18	2.9979	1.38494	-1.25969	0.582772	0.254705	0.932406	0.233905	-0.0758904	-0.245159	0.495248	-0.212739	0	0	-0.480401	-0.130347	-0.198142	0.400227	-0.204461	0	0	-0.292278	0.0994853	-0.254646	0.0754984	-0.334861	0.53512	0.707635	1.39007	0	0	0.0348552	-0.307402	0.241462	0.97294	1.5708	0	0
1.19	2.97869	1.38664	-1.24004	0.5845	0.266926	0.932515	0.23261	-0.0696586	-0.250914	0.506929	-0.225804	0	0	-0.47391	-0.140525	-0.2025	0.429905	-0.217019	0	0	-0.285842	0.101833	-0.260392	0.0729121	-0.330152	0.535271	0.703648	1.39573	0	0	0.0151077	-0.302379	0.2269	0.974635	1.5708	0	0
1.2	2.95193	1.38564	-1.21328	0.586191	0.279136	0.933136	0.228412	-0.0607164	-0.253291	0.519479	-0.23446	0	0	-0.467626	-0.152587	-0.205546	0.462552	-0.232668	0	0	-0.281741	0.106531	-0.265038	0.0705443	-0.326043	0.534812	0.700461	1.3988	0	0	-0.00362088	-0.296651	0.213629	0.974201	1.5708	0	0
1.21	2.92223	1.38337	-1.18485	0.587922	0.291295	0.934044	0.223343	-0.0499833	-0.248618	0.532744	-0.239902	0	0	-0.46014	-0.164911	-0.207025	0.498858	-0.251223	0	0	-0.278711	0.112109	-0.267964	0.0685979	-0.323261	0.535515	0.698647	1.40119	0	0	-0.0212855	-0.290826	0.202406	0.972154	1.5708	0	0
